<svg xmlns="http://www.w3.org/2000/svg" xmlns:xlink="http://www.w3.org/1999/xlink" version="1.1" id="Layer_1" x="0px" y="0px" width="88px" height="100px" viewBox="0 0 88 100" enable-background="new 0 0 88 100" xml:space="preserve">
<path d="M80,12H67V3c0-1.657-1.344-3-3-3c-1.657,0-3,1.343-3,3v9H27V3c0-1.657-1.344-3-3-3c-1.657,0-3,1.343-3,3v9H8  c-4.418,0-8,3.623-8,8.093V27l0,0v1h88v-1l0,0v-6.907C88,15.623,84.418,12,80,12z M24,26c-3.313,0-6-2.687-6-6  c0-2.219,1.209-4.152,3-5.19V20c0,1.657,1.343,3,3,3c1.656,0,3-1.343,3-3v-5.191c1.792,1.038,3,2.972,3,5.191  C30,23.313,27.314,26,24,26z M64,26c-3.312,0-6-2.687-6-6c0-2.219,1.209-4.152,3-5.19V20c0,1.657,1.343,3,3,3c1.656,0,3-1.343,3-3  v-5.191c1.792,1.038,3,2.972,3,5.191C70,23.313,67.314,26,64,26z"/>
<path d="M0,32v59.906C0,96.377,3.582,100,8,100h72c4.418,0,8-3.623,8-8.094V32H0z M82,93H6V37h76V93z"/>
<g id="Layer_x0020_1">
	<path fill="#000000" d="M10.208,59.643c5.335,0.93,11.847,3.814,14.866,4.914c1.154-0.365,2.418-0.709,3.773-1.031   c1.521-0.36,0.754-1.852,0.701-2.801c-0.053-0.939,0.228-0.811,1.092-0.454c0.959,0.396,1.544,1.169,2.445,1.527   c2.373,0.269,6.704-1.458,13.492-1.902c1.089-0.071,2.56-1.84,2.734-2.642c0.262-1.199,0.211-2.756,0.123-3.775   c-0.094-1.088,0.572-1.162,1.609-0.742c1.568,0.636,3.918,3.75,4.936,5.483c0.529,0.9,0.238,0.892,1.213,1.04   c9.302,1.42,16.608,4.761,19.563,5.967c3.427,1.803,2.326,1.795,0.338,2.771c-1.705,0.486-3.184,1.399-5.14,1.481   c-2.174,0.093-4.338,0.354-6.509,0.362c-3.631,8.997-4.141-0.265-6.521-0.143c-5.22,0.269-10.519-0.676-15.369-1.211   c-3.131,2.074-3.74,1.022-6.11-1.055c-1.462-0.049-2.022-0.307-3.39-0.006c-0.43,0.095-0.949,0.322-1.226,0.67   c-0.596,0.752-1.278,1.409-2.032,1.985c-0.412,0.315-1.339,0.72-0.875-0.629c0.576-1.669-1.171-2.337-2.785-2.251   c-0.541,0.028-1.306-0.143-1.763,0.33c-2.062,2.128-2.399,4.239-4.095,5.469c0,0-3.91,2.638-1.367-2.139   c2.209-4.15-3.377-2.389-8.113-7.776c-0.908-1.033-0.469-0.831-2.059-2.312C8.788,59.887,8.664,59.346,10.208,59.643L10.208,59.643   z"/>
</g>
</svg>